<svg width="auto" height="auto" viewBox="0 0 49 48" fill="none" xmlns="http://www.w3.org/2000/svg">
<g opacity="0.4">
<path d="M16.1788 14.2197C15.8859 13.9268 15.411 13.9268 15.1181 14.2197C14.8252 14.5126 14.8252 14.9874 15.1181 15.2803L20.8984 21.0608V24C20.8984 26.2091 22.6893 28 24.8984 28C25.7319 28 26.5058 27.7451 27.1465 27.309L28.2924 28.4549C27.416 29.1112 26.3276 29.5 25.1484 29.5H24.6484L24.432 29.4956C21.6329 29.3821 19.3984 27.077 19.3984 24.25V23.75L19.3916 23.6482C19.3419 23.2822 19.0281 23 18.6484 23C18.2342 23 17.8984 23.3358 17.8984 23.75V24.25L17.9025 24.4863C18.0213 27.938 20.7317 30.7316 24.1485 30.9818L24.1484 33.25L24.1553 33.3518C24.2049 33.7178 24.5187 34 24.8984 34C25.3127 34 25.6484 33.6642 25.6484 33.25L25.6494 30.9817C27.0484 30.8791 28.3289 30.35 29.3615 29.5241L33.6179 33.7805C33.9108 34.0734 34.3856 34.0734 34.6785 33.7805C34.9714 33.4876 34.9714 33.0127 34.6786 32.7198L16.1788 14.2197ZM26.0547 26.2171C25.7089 26.3978 25.3156 26.5 24.8984 26.5C23.5177 26.5 22.3984 25.3807 22.3984 24V22.5608L26.0547 26.2171ZM27.3984 18V23.3182L28.8286 24.7483C28.8744 24.5059 28.8984 24.2558 28.8984 24V18C28.8984 15.7909 27.1076 14 24.8984 14C23.0506 14 21.4954 15.253 21.0361 16.9558L22.3984 18.3181V18C22.3984 16.6193 23.5177 15.5 24.8984 15.5C26.2791 15.5 27.3984 16.6193 27.3984 18ZM30.0946 26.0144L31.2405 27.1604C31.6623 26.2791 31.8984 25.2921 31.8984 24.25V23.75L31.8916 23.6482C31.8419 23.2822 31.5281 23 31.1484 23C30.7342 23 30.3984 23.3358 30.3984 23.75V24.25L30.3941 24.4664C30.3721 25.0075 30.2683 25.5276 30.0946 26.0144Z" fill="#242424"/>
</g>
</svg>
