<svg width="auto" height="auto" viewBox="0 0 25 24" fill="none" xmlns="http://www.w3.org/2000/svg">
<path d="M4.69783 4.55379L4.77045 4.46967C5.03672 4.2034 5.45338 4.1792 5.74699 4.39705L5.83111 4.46967L12.3008 10.939L18.7705 4.46967C19.0633 4.17678 19.5382 4.17678 19.8311 4.46967C20.124 4.76256 20.124 5.23744 19.8311 5.53033L13.3618 12L19.8311 18.4697C20.0974 18.7359 20.1216 19.1526 19.9037 19.4462L19.8311 19.5303C19.5648 19.7966 19.1482 19.8208 18.8546 19.6029L18.7705 19.5303L12.3008 13.061L5.83111 19.5303C5.53822 19.8232 5.06334 19.8232 4.77045 19.5303C4.47756 19.2374 4.47756 18.7626 4.77045 18.4697L11.2398 12L4.77045 5.53033C4.50418 5.26406 4.47998 4.8474 4.69783 4.55379L4.77045 4.46967L4.69783 4.55379Z" fill="#242424"/>
</svg>
