<svg width="auto" height="auto" viewBox="0 0 31 30" fill="none" xmlns="http://www.w3.org/2000/svg">
<path d="M21.6484 14C22.0281 14 22.3419 14.2822 22.3916 14.6482L22.3984 14.75V15.25C22.3984 18.8094 19.6434 21.7254 16.1494 21.9817L16.1484 24.25C16.1484 24.6642 15.8127 25 15.3984 25C15.0187 25 14.7049 24.7178 14.6553 24.3518L14.6484 24.25L14.6485 21.9818C11.2317 21.7316 8.52127 18.938 8.4025 15.4863L8.39844 15.25V14.75C8.39844 14.3358 8.73422 14 9.14844 14C9.52813 14 9.84193 14.2822 9.89159 14.6482L9.89844 14.75V15.25C9.89844 18.077 12.1329 20.3821 14.932 20.4956L15.1484 20.5H15.6484C18.4754 20.5 20.7806 18.2656 20.8941 15.4664L20.8984 15.25V14.75C20.8984 14.3358 21.2342 14 21.6484 14ZM15.3984 5C17.6076 5 19.3984 6.79086 19.3984 9V15C19.3984 17.2091 17.6076 19 15.3984 19C13.1893 19 11.3984 17.2091 11.3984 15V9C11.3984 6.79086 13.1893 5 15.3984 5ZM15.3984 6.5C14.0177 6.5 12.8984 7.61929 12.8984 9V15C12.8984 16.3807 14.0177 17.5 15.3984 17.5C16.7791 17.5 17.8984 16.3807 17.8984 15V9C17.8984 7.61929 16.7791 6.5 15.3984 6.5Z" fill="#464FEB"/>
</svg>
