<?xml version="1.0" encoding="UTF-8"?>
<svg width="296px" height="216px" viewBox="0 0 296 216" version="1.1" xmlns="http://www.w3.org/2000/svg" xmlns:xlink="http://www.w3.org/1999/xlink">
    <!-- Generator: Sketch 51.2 (57519) - http://www.bohemiancoding.com/sketch -->
    <title>illustration-UploadToOD@1x</title>
    <desc>Created with Sketch.</desc>
    <defs></defs>
    <g id="MVP---Consumer-Free" stroke="none" stroke-width="1" fill="none" fill-rule="evenodd">
        <g id="Office-PWA-MVP-ConsFree-Existing-09-UploadAndOpenConfirm" transform="translate(-535.000000, -172.000000)">
            <g id="Group-2" transform="translate(447.000000, 140.000000)">
                <g id="Error">
                    <g id="illustration-UploadToOD" transform="translate(88.000000, 32.000000)">
                        <g fill="#FF0066" fill-opacity="0.4" id="zero-state-Pinned" opacity="0">
                            <g>
                                <rect id="Rectangle-18" x="0" y="0" width="296" height="216"></rect>
                            </g>
                        </g>
                        <g id="Group-20" transform="translate(52.000000, 0.000000)">
                            <g id="Group" transform="translate(0.000000, 0.941176)">
                                <path d="M62.1571765,93.1570824 C51.9670588,95.2839529 51.9670588,95.2839529 51.9670588,95.2839529 C51.9670588,95.2839529 52.8311529,102.807247 53.2583529,105.217318 C53.7001412,107.214588 54.8459294,111.751624 59.1472,111.185035 C63.3174588,110.474541 63.0164706,105.927906 63.0164706,103.801035 C62.7300706,101.251671 62.1571765,93.1570824 62.1571765,93.1570824 Z" id="Fill-3" fill="#F6CAA7"></path>
                                <path d="M53.5593412,97.1275294 C53.7001412,100.680376 60.1521882,99.1248 62.5892706,98.2702118 C62.4436706,95.8505412 62.4436706,95.8505412 62.4436706,95.8505412 L53.5593412,97.1275294 Z" id="Fill-4" fill="#DEB695"></path>
                                <path d="M57.5694118,80.6695529 C49.2434824,71.5859765 38.0532706,78.5330824 38.7668706,87.4726588 C39.3397647,96.2778353 46.6656,98.8415059 52.6855529,98.9808 C57.2830118,99.4080941 61.7299765,96.5610353 63.7495529,95.4232471 C66.0410353,94.2901647 65.4681412,93.1570824 65.4681412,93.1570824 C64.7496471,91.88 62.3028706,87.4726588 62.4436706,86.4836706 C64.8952471,84.496 63.4631529,84.2127059 63.1718588,84.0735059 C62.7300706,83.7902118 58.72,81.9466353 58.2879059,81.3801412 C58.0015059,81.0968471 57.8559059,80.8136471 57.5694118,80.6695529 C57.5694118,80.6695529 57.5694118,80.6695529 57.5694118,80.6695529 Z" id="Fill-5" fill="#F6CAA7"></path>
                                <path d="M50.1076706,88.4664471 C49.3891765,88.6105412 48.8162824,88.9033412 48.8162824,89.4699294 C48.9570824,90.3197176 49.5298824,91.1743059 50.3940706,91.88 C50.8212706,92.3072941 51.3941647,92.7297882 51.6805647,93.0130824 C51.1077647,92.1632941 49.3891765,89.7531294 50.1076706,88.4664471 Z" id="Fill-6" fill="#DEB695"></path>
                                <path d="M56.5693176,80.8136471 C56.2829176,80.2470588 53.2583529,78.8163765 53.2583529,78.9555765 C53.1176471,79.0996706 56.4237176,80.9528471 56.1373176,81.2361412 C54.9915294,82.5131294 48.5298824,82.7964235 52.3990588,87.4726588 C52.9719529,88.1832471 51.2533647,88.3272471 50.1076706,88.4664471 C49.3891765,88.6105412 48.8162824,88.9033412 48.8162824,89.4699294 C48.9570824,90.3197176 49.5298824,91.1743059 50.3940706,91.88 C50.8212706,92.3072941 51.3941647,92.7297882 51.6805647,93.0130824 C52.6855529,93.5843765 54.5594353,97.1275294 52.6855529,99.1248 C52.6855529,99.1248 52.6855529,99.1248 52.6855529,99.1248 C52.6855529,99.1248 46.3792,98.8415059 43.0682353,96.5610353 C38.4804706,93.1570824 35.0432941,86.6228706 40.4903529,79.5221647 C45.3742118,73.1463529 54.4186353,73.2855529 58.1471059,79.3828706 L56.5693176,80.8136471 Z" id="Fill-7" fill="#212121"></path>
                                <path d="M56.8558118,85.0624941 C57.1422118,84.9232941 57.2830118,84.9232941 57.5694118,85.0624941 C57.5694118,84.9232941 57.5694118,84.7792941 57.4286118,84.496 C57.2830118,84.0735059 56.8558118,83.9295059 56.4237176,84.0735059 C55.9965176,84.3568 55.8508235,84.7792941 55.9965176,85.2065882 C55.9965176,85.3505882 56.1373176,85.4897882 56.4237176,85.6338824 C56.4237176,85.3505882 56.5693176,85.2065882 56.8558118,85.0624941 Z" id="Fill-8" fill="#212121"></path>
                                <path d="M60.7249882,91.0302118 C60.7249882,91.0302118 61.4435765,90.8910118 62.3028706,90.4637176 C62.5892706,90.3197176 63.0164706,90.1804235 63.3174588,90.0364235 C63.6039529,89.8972235 63.7495529,89.7531294 63.7495529,89.7531294 C63.7495529,89.7531294 63.8903529,89.7531294 64.0359529,89.8972235 C64.0359529,89.8972235 64.0359529,90.0364235 63.8903529,90.0364235 C63.8903529,90.0364235 63.8903529,90.0364235 63.8903529,90.1804235 C63.8903529,90.1804235 63.8903529,90.1804235 63.8903529,90.1804235 C63.8903529,90.1804235 63.7495529,90.1804235 63.4631529,90.3197176 C63.1718588,90.4637176 62.7300706,90.6077176 62.3028706,90.7470118 C61.4435765,90.8910118 60.7249882,91.0302118 60.7249882,91.0302118 Z" id="Fill-9" fill="#A92B1A"></path>
                                <path d="M60.7249882,91.0302118 C60.7249882,91.0302118 61.4435765,90.8910118 62.3028706,90.6077176 C62.7300706,90.6077176 63.0164706,90.4637176 63.3174588,90.3197176 C63.6039529,90.1804235 63.8903529,90.1804235 63.8903529,90.1804235 C63.8903529,90.0364235 64.0359529,90.0364235 64.0359529,90.1804235 C64.1767529,90.3197176 64.1767529,90.4637176 64.0359529,90.4637176 C64.0359529,90.4637176 64.0359529,90.4637176 64.0359529,90.4637176 C64.0359529,90.4637176 64.0359529,90.4637176 64.0359529,90.4637176 C64.0359529,90.4637176 63.7495529,90.6077176 63.4631529,90.6077176 C63.1718588,90.7470118 62.7300706,90.7470118 62.3028706,90.8910118 C61.4435765,91.0302118 60.7249882,91.0302118 60.7249882,91.0302118 Z" id="Fill-10" fill="#C75033"></path>
                                <path d="M187.172518,203.024367 C5.60877176,203.024367 5.60877176,203.024367 5.60877176,203.024367 C3.02602353,203.024367 0.87536,200.897496 0.87536,198.343341 C0.87536,195.793986 3.02602353,193.796744 5.60877176,193.796744 C187.172518,193.796744 187.172518,193.796744 187.172518,193.796744 C189.764988,193.796744 191.915671,195.793986 191.915671,198.343341 C191.915671,200.897496 189.764988,203.024367 187.172518,203.024367 Z" id="Fill-11" fill="#EAEAEA"></path>
                                <path d="M85.7028706,195.213054 C86.4213647,199.90368 86.4213647,199.90368 86.4213647,199.90368 C86.8485647,201.036734 87.9991529,201.180762 89.5721412,201.036734 C104.078212,199.764452 104.078212,199.764452 104.078212,199.764452 C106.515294,199.481186 113.836235,197.637581 113.836235,197.637581 C116.846212,196.643765 115.127624,195.357082 114.409129,195.357082 C111.831247,195.49632 105.510306,194.363266 100.480753,193.657515 C96.1794824,193.086193 85.7028706,195.213054 85.7028706,195.213054 Z" id="Fill-12" fill="#212121"></path>
                                <path d="M85.5620706,191.386616 C85.7028706,192.802927 85.4163765,194.363266 85.7028706,195.213054 C85.9892706,196.504536 103.359718,195.357082 103.359718,195.357082 C103.791718,195.213054 106.0832,194.507304 105.223906,194.363266 C100.912847,193.796744 92.1645176,191.813911 92.1645176,190.109534 L85.5620706,191.386616 Z" id="Fill-13" fill="#F6CAA7"></path>
                                <polygon id="Fill-14" fill="#F6CAA7" points="105.223906 195.357082 113.549835 195.49632 100.048753 154.764235 93.1695059 156.751812"></polygon>
                                <polygon id="Fill-15" fill="#F6CAA7" points="85.9892706 195.213054 93.888 194.929788 87.5670588 157.740847 79.3868235 157.740847"></polygon>
                                <path d="M160.053741,198.770635 C159.767341,198.770635 159.194447,198.631407 158.752659,198.487369 C157.461271,198.060075 156.461176,196.927031 155.597082,195.213054 C153.592,190.820094 137.080941,134.186918 136.367247,131.906353 C136.367247,131.623153 136.367247,131.479059 136.508047,131.339859 C136.653741,131.195859 136.794541,131.056565 136.940141,131.056565 C150.582118,131.056565 150.582118,131.056565 150.582118,131.056565 C150.868518,131.056565 151.154918,131.195859 151.154918,131.623153 C161.917929,197.776819 161.917929,197.776819 161.917929,197.776819 C161.917929,198.060075 161.772329,198.343341 161.485929,198.487369 C161.485929,198.487369 160.913035,198.770635 160.053741,198.770635 Z M137.799435,132.328847 C139.819012,139.290447 154.883388,190.680866 156.747671,194.646532 C157.461271,196.077242 158.179765,196.927031 159.194447,197.354325 C159.767341,197.493553 160.199341,197.493553 160.626635,197.493553 C150.009224,132.328847 150.009224,132.328847 150.009224,132.328847 L137.799435,132.328847 Z" id="Fill-16" fill="#3C3C3C"></path>
                                <path d="M28.5767529,198.770635 C27.7174588,198.770635 27.1445647,198.487369 27.1445647,198.487369 C26.8581647,198.343341 26.7173647,198.060075 26.7173647,197.776819 C37.4803765,131.623153 37.4803765,131.623153 37.4803765,131.623153 C37.4803765,131.195859 37.7667765,131.056565 38.0532706,131.056565 C51.6805647,131.056565 51.6805647,131.056565 51.6805647,131.056565 C51.8262588,131.056565 51.9670588,131.195859 52.1126588,131.339859 C52.2534588,131.479059 52.2534588,131.623153 52.2534588,131.906353 C51.5397647,134.186918 35.0432941,190.820094 33.0237176,195.213054 C32.1644235,196.927031 31.1594353,198.060075 29.8680471,198.487369 C29.2952471,198.631407 28.8679529,198.770635 28.5767529,198.770635 Z M28.0038588,197.493553 C28.8679529,197.637581 30.5865412,197.493553 31.8779294,194.646532 C33.7373176,190.680866 48.8162824,139.290447 50.8212706,132.328847 C38.6260706,132.328847 38.6260706,132.328847 38.6260706,132.328847 L28.0038588,197.493553 Z" id="Fill-17" fill="#3C3C3C"></path>
                                <path d="M94.3152,135.7472 C59.7200941,135.7472 30.8730353,133.759624 23.9792,131.056565 C22.4014118,131.056565 22.4014118,131.056565 22.4014118,131.056565 C22.4014118,134.186918 22.4014118,134.186918 22.4014118,134.186918 C22.4014118,137.446776 54.5594353,139.996141 94.3152,139.996141 C134.070965,139.996141 166.219294,137.446776 166.219294,134.186918 C166.219294,131.056565 166.219294,131.056565 166.219294,131.056565 C164.641506,131.056565 164.641506,131.056565 164.641506,131.056565 C157.747765,133.759624 128.900612,135.7472 94.3152,135.7472 Z" id="Fill-18" fill="#3C3C3C"></path>
                                <path d="M166.219294,131.056565 C166.219294,134.326118 134.070965,136.880282 94.3152,136.880282 C54.5594353,136.880282 22.4014118,134.326118 22.4014118,131.056565 C22.4014118,127.796706 54.5594353,125.242541 94.3152,125.242541 C134.070965,125.242541 166.219294,127.796706 166.219294,131.056565 Z" id="Fill-19" fill="#666666"></path>
                                <polygon id="Fill-20" fill="#D0D0D0" points="87.1350588 131.195859 87.9951308 131.195859 87.9951308 130.203529 87.1350588 130.203529"></polygon>
                                <path d="M87.8535529,131.339859 C88.1399529,131.195859 87.9991529,131.056565 87.8535529,131.056565 C59.7200941,131.056565 59.7200941,131.056565 59.7200941,131.056565 C59.4336941,131.056565 59.1472,131.195859 59.0064,131.339859 C56.8558118,133.620329 56.8558118,133.620329 56.8558118,133.620329 C56.7101176,133.759624 56.8558118,133.903624 56.9966118,133.903624 C85.1299765,133.903624 85.1299765,133.903624 85.1299765,133.903624 C85.4163765,133.903624 85.7028706,133.759624 85.8484706,133.620329 L87.8535529,131.339859 Z" id="Fill-21" fill="#D0D0D0"></path>
                                <path d="M87.8535529,130.346071 C88.1399529,130.206776 87.9991529,130.062776 87.8535529,130.062776 C59.7200941,130.062776 59.7200941,130.062776 59.7200941,130.062776 C59.4336941,130.062776 59.1472,130.206776 59.0064,130.346071 C56.8558118,132.616941 56.8558118,132.616941 56.8558118,132.616941 C56.7101176,132.756141 56.8558118,132.900235 56.9966118,132.900235 C85.1299765,132.900235 85.1299765,132.900235 85.1299765,132.900235 C85.4163765,132.900235 85.7028706,132.756141 85.8484706,132.616941 L87.8535529,130.346071 Z" id="Fill-22" fill="#F4F4F4"></path>
                                <polygon id="Fill-23" fill="#D0D0D0" points="110.384565 130.062776 137.083407 130.062776 137.083407 129.495724 110.384565 129.495724"></polygon>
                                <path d="M131.633882,127.652706 C131.633882,127.652706 132.784471,127.652706 133.930165,128.079906 C135.648753,128.785694 135.648753,128.785694 135.648753,128.785694 C136.794541,129.212988 136.794541,129.212988 136.794541,129.212988 C136.794541,129.212988 137.945129,129.635482 136.080847,129.635482 C131.920282,129.635482 131.920282,129.635482 131.920282,129.635482 C131.633882,129.635482 131.633882,129.635482 131.633882,129.635482 C111.112753,129.635482 111.112753,129.635482 111.112753,129.635482 C111.112753,129.635482 109.525271,129.635482 110.967153,129.068988 C112.976941,128.2192 112.976941,128.2192 112.976941,128.2192 C112.976941,128.2192 114.695529,127.652706 116.414118,127.652706 L131.633882,127.652706 Z" id="Fill-24" fill="#F4F4F4"></path>
                                <polygon id="Fill-25" fill="#A6A6A6" points="119.715388 127.652706 127.898112 127.652706 127.898112 118.993529 119.715388 118.993529"></polygon>
                                <path d="M158.908047,73.7128471 C158.908047,73.7128471 162.350024,73.7128471 162.350024,77.112 C162.350024,115.875671 162.350024,115.875671 162.350024,115.875671 C162.350024,115.875671 162.350024,119.418824 158.908047,119.418824 C88.7128471,119.418824 88.7128471,119.418824 88.7128471,119.418824 C88.7128471,119.418824 85.1299765,119.418824 85.1299765,115.875671 C85.1299765,77.112 85.1299765,77.112 85.1299765,77.112 C85.1299765,77.112 85.1299765,73.7128471 88.7128471,73.7128471 L158.908047,73.7128471 Z" id="Fill-26" fill="#C8C8C8"></path>
                                <path d="M157.893365,76.2622118 C157.893365,76.2622118 159.480847,76.2622118 159.480847,77.6832941 C159.480847,115.294776 159.480847,115.294776 159.480847,115.294776 C159.480847,115.294776 159.480847,116.725459 157.893365,116.725459 C89.5721412,116.725459 89.5721412,116.725459 89.5721412,116.725459 C89.5721412,116.725459 88.1399529,116.725459 88.1399529,115.294776 C88.1399529,77.6832941 88.1399529,77.6832941 88.1399529,77.6832941 C88.1399529,77.6832941 88.1399529,76.2622118 89.5721412,76.2622118 C149.135341,76.2622118 149.135341,76.2622118 149.135341,76.2622118 L157.893365,76.2622118 Z" id="Fill-27" fill="#FFFFFF"></path>
                                <path d="M115.268424,89.3306353 C115.268424,90.0364235 114.554824,90.6077176 113.836235,90.6077176 C99.3350588,90.6077176 99.3350588,90.6077176 99.3350588,90.6077176 C98.6165647,90.6077176 98.0436706,90.0364235 98.0436706,89.3306353 C98.0436706,88.1832471 98.0436706,88.1832471 98.0436706,88.1832471 C98.0436706,87.4726588 98.6165647,86.9061647 99.3350588,86.9061647 C113.836235,86.9061647 113.836235,86.9061647 113.836235,86.9061647 C114.554824,86.9061647 115.268424,87.4726588 115.268424,88.1832471 C115.268424,89.3306353 115.268424,89.3306353 115.268424,89.3306353 Z" id="Fill-28" fill="#E86E58"></path>
                                <path d="M128.468612,94.4341647 C128.468612,95.1399529 127.895718,95.8505412 127.182024,95.8505412 C99.3350588,95.8505412 99.3350588,95.8505412 99.3350588,95.8505412 C98.6165647,95.8505412 98.0436706,95.1399529 98.0436706,94.4341647 C98.0436706,93.4403765 98.0436706,93.4403765 98.0436706,93.4403765 C98.0436706,92.7297882 98.6165647,92.0240941 99.3350588,92.0240941 C127.182024,92.0240941 127.182024,92.0240941 127.182024,92.0240941 C127.895718,92.0240941 128.468612,92.7297882 128.468612,93.4403765 C128.468612,94.4341647 128.468612,94.4341647 128.468612,94.4341647 Z" id="Fill-29" fill="#E86E58"></path>
                                <path d="M145.266071,99.6912941 C145.266071,100.397082 144.693271,100.963576 143.974682,100.963576 C116.127718,100.963576 116.127718,100.963576 116.127718,100.963576 C115.414118,100.963576 114.841224,100.397082 114.841224,99.6912941 C114.841224,98.5583059 114.841224,98.5583059 114.841224,98.5583059 C114.841224,97.8477176 115.414118,97.2668235 116.127718,97.2668235 C143.974682,97.2668235 143.974682,97.2668235 143.974682,97.2668235 C144.693271,97.2668235 145.266071,97.8477176 145.266071,98.5583059 C145.266071,99.6912941 145.266071,99.6912941 145.266071,99.6912941 Z" id="Fill-30" fill="#E86E58"></path>
                                <path d="M152.014212,104.794824 C152.014212,105.500612 151.441412,106.2112 150.582118,106.2112 C116.127718,106.2112 116.127718,106.2112 116.127718,106.2112 C115.414118,106.2112 114.841224,105.500612 114.841224,104.794824 C114.841224,103.801035 114.841224,103.801035 114.841224,103.801035 C114.841224,103.090447 115.414118,102.384753 116.127718,102.384753 C150.582118,102.384753 150.582118,102.384753 150.582118,102.384753 C151.441412,102.384753 152.014212,103.090447 152.014212,103.801035 C152.014212,104.794824 152.014212,104.794824 152.014212,104.794824 Z" id="Fill-31" fill="#E86E58"></path>
                                <path d="M88.7128471,76.5455059 C88.1399529,76.9728 88.1399529,77.6832941 88.1399529,77.6832941 C88.1399529,115.294776 88.1399529,115.294776 88.1399529,115.294776 C88.1399529,116.725459 89.5721412,116.725459 89.5721412,116.725459 C157.893365,116.725459 157.893365,116.725459 157.893365,116.725459 C158.320565,116.725459 158.607059,116.581459 158.908047,116.442165 C140.824,106.2112 140.824,106.2112 140.824,106.2112 C116.127718,106.2112 116.127718,106.2112 116.127718,106.2112 C115.414118,106.2112 114.841224,105.500612 114.841224,104.794824 C114.841224,103.801035 114.841224,103.801035 114.841224,103.801035 C114.841224,103.090447 115.414118,102.384753 116.127718,102.384753 C134.216659,102.384753 134.216659,102.384753 134.216659,102.384753 C131.633882,100.963576 131.633882,100.963576 131.633882,100.963576 C116.127718,100.963576 116.127718,100.963576 116.127718,100.963576 C115.414118,100.963576 114.841224,100.397082 114.841224,99.6912941 C114.841224,98.5583059 114.841224,98.5583059 114.841224,98.5583059 C114.841224,97.8477176 115.414118,97.2668235 116.127718,97.2668235 C125.172141,97.2668235 125.172141,97.2668235 125.172141,97.2668235 C122.594259,95.8505412 122.594259,95.8505412 122.594259,95.8505412 C99.3350588,95.8505412 99.3350588,95.8505412 99.3350588,95.8505412 C98.6165647,95.8505412 98.0436706,95.1399529 98.0436706,94.4341647 C98.0436706,93.4403765 98.0436706,93.4403765 98.0436706,93.4403765 C98.0436706,92.7297882 98.6165647,92.0240941 99.3350588,92.0240941 C115.986918,92.0240941 115.986918,92.0240941 115.986918,92.0240941 C113.404235,90.6077176 113.404235,90.6077176 113.404235,90.6077176 C99.3350588,90.6077176 99.3350588,90.6077176 99.3350588,90.6077176 C98.6165647,90.6077176 98.0436706,90.0364235 98.0436706,89.3306353 C98.0436706,88.1832471 98.0436706,88.1832471 98.0436706,88.1832471 C98.0436706,87.4726588 98.6165647,86.9061647 99.3350588,86.9061647 C106.801694,86.9061647 106.801694,86.9061647 106.801694,86.9061647 C88.7128471,76.5455059 88.7128471,76.5455059 88.7128471,76.5455059 Z" id="Fill-32" fill="#EAEAEA"></path>
                                <path d="M106.801694,86.9061647 C99.3350588,86.9061647 99.3350588,86.9061647 99.3350588,86.9061647 C98.6165647,86.9061647 98.0436706,87.4726588 98.0436706,88.1832471 C98.0436706,89.3306353 98.0436706,89.3306353 98.0436706,89.3306353 C98.0436706,90.0364235 98.6165647,90.6077176 99.3350588,90.6077176 C113.404235,90.6077176 113.404235,90.6077176 113.404235,90.6077176 C106.801694,86.9061647 106.801694,86.9061647 106.801694,86.9061647 Z" id="Fill-33" fill="#A92B1A"></path>
                                <path d="M115.986918,92.0240941 C99.3350588,92.0240941 99.3350588,92.0240941 99.3350588,92.0240941 C98.6165647,92.0240941 98.0436706,92.7297882 98.0436706,93.4403765 C98.0436706,94.4341647 98.0436706,94.4341647 98.0436706,94.4341647 C98.0436706,95.1399529 98.6165647,95.8505412 99.3350588,95.8505412 C122.594259,95.8505412 122.594259,95.8505412 122.594259,95.8505412 C115.986918,92.0240941 115.986918,92.0240941 115.986918,92.0240941 Z" id="Fill-34" fill="#A92B1A"></path>
                                <path d="M125.172141,97.2668235 C116.127718,97.2668235 116.127718,97.2668235 116.127718,97.2668235 C115.414118,97.2668235 114.841224,97.8477176 114.841224,98.5583059 C114.841224,99.6912941 114.841224,99.6912941 114.841224,99.6912941 C114.841224,100.397082 115.414118,100.963576 116.127718,100.963576 C131.633882,100.963576 131.633882,100.963576 131.633882,100.963576 C125.172141,97.2668235 125.172141,97.2668235 125.172141,97.2668235 Z" id="Fill-35" fill="#A92B1A"></path>
                                <path d="M134.216659,102.384753 C116.127718,102.384753 116.127718,102.384753 116.127718,102.384753 C115.414118,102.384753 114.841224,103.090447 114.841224,103.801035 C114.841224,104.794824 114.841224,104.794824 114.841224,104.794824 C114.841224,105.500612 115.414118,106.2112 116.127718,106.2112 C140.824,106.2112 140.824,106.2112 140.824,106.2112 C134.216659,102.384753 134.216659,102.384753 134.216659,102.384753 Z" id="Fill-36" fill="#A92B1A"></path>
                                <path d="M72.5302588,52.9974588 C72.5302588,52.7141647 72.5302588,52.4309647 72.5302588,52.1428706 C72.5302588,49.5839059 70.5203765,47.4570353 67.7871059,47.4570353 C66.7822118,47.4570353 65.7772235,47.7403294 65.0636235,48.3068235 C64.0586353,46.6024471 62.0536471,45.4694588 59.9029647,45.4694588 C56.7376941,45.4694588 54.0141176,48.0236235 54.0141176,51.1538824 C54.0141176,51.1538824 54.0141176,51.1538824 53.8685176,51.1538824 C51.2906353,51.1538824 49.1399529,53.2807529 49.1399529,55.8301176 C49.1399529,58.3842824 51.2906353,60.5207529 53.8685176,60.5207529 C72.3845647,60.5207529 72.3845647,60.5207529 72.3845647,60.5207529 C74.3896471,60.5207529 76.1130353,58.8067765 76.1130353,56.8239059 C76.1130353,54.6970353 74.5352471,53.1366588 72.5302588,52.9974588 Z" id="Fill-39" fill="#EAEAEA"></path>
                                <path d="M163.664094,6.58089412 C163.664094,6.2976 163.664094,6.1536 163.664094,5.87030588 C163.664094,3.58983529 161.940612,1.89025882 159.649224,1.89025882 C158.789929,1.89025882 157.930635,2.17355294 157.357741,2.60084706 C156.493553,1.17976471 154.774965,0.190682353 153.041882,0.190682353 C150.318306,0.190682353 148.026824,2.31755294 148.026824,5.01091765 C148.026824,5.01091765 147.881224,5.01091765 147.881224,5.01091765 C145.730541,5.01091765 143.856565,6.72009412 143.856565,8.99105882 C143.856565,11.1179294 145.730541,12.9615059 147.881224,12.9615059 C163.518494,12.9615059 163.518494,12.9615059 163.518494,12.9615059 C165.251576,12.9615059 166.683765,11.5404235 166.683765,9.69675294 C166.683765,7.99717647 165.397271,6.58089412 163.664094,6.58089412 Z" id="Fill-40" fill="#EAEAEA"></path>
                                <polygon id="Fill-41" fill="#0078D7" points="57.8559059 154.197647 66.898896 154.197647 66.898896 150.925299 57.8559059 150.925299"></polygon>
                                <path d="M48.6705882,106.792094 C48.6705882,106.792094 41.4904471,113.7344 40.2038588,129.918776 C51.9670588,129.918776 49.5298824,129.918776 49.5298824,129.918776 L48.6705882,106.792094 Z" id="Fill-42" fill="#9FCDB3"></path>
                                <path d="M82.5520941,191.530645 C76.8040471,154.197647 76.8040471,154.197647 76.8040471,154.197647 C57.4286118,151.220988 57.4286118,151.220988 57.4286118,151.220988 C59.2928941,139.712941 59.2928941,139.712941 59.2928941,139.712941 C83.1249882,143.270494 83.1249882,143.270494 83.1249882,143.270494 C85.7028706,143.697788 87.7127529,145.680565 87.9991529,148.374024 C93.6016,188.126701 93.6016,188.126701 93.6016,188.126701 L82.5520941,191.530645 Z" id="Fill-43" fill="#2B579A"></path>
                                <polygon id="Fill-44" fill="#002050" points="80.6733176 153.064659 60.8706824 150.3568 62.4436706 140.140235 59.2928941 139.712941 57.4286118 151.220988 76.8040471 154.197647 82.5520941 191.530645 85.9892706 190.536828"></polygon>
                                <path d="M100.767247,191.103351 C90.4362353,156.607812 90.4362353,156.607812 90.4362353,156.607812 C56.7101176,152.920565 56.7101176,152.920565 56.7101176,152.920565 C58.0015059,141.273224 58.0015059,141.273224 58.0015059,141.273224 C95.7522824,145.536565 95.7522824,145.536565 95.7522824,145.536565 C98.1893647,145.680565 100.194353,147.524235 100.767247,149.790306 C111.831247,187.560179 111.831247,187.560179 111.831247,187.560179 L100.767247,191.103351 Z" id="Fill-45" fill="#2B579A"></path>
                                <path d="M100.767247,191.103351 C104.078212,189.970306 104.078212,189.970306 104.078212,189.970306 C94.1744,158.024113 94.1744,158.024113 94.1744,158.024113 C93.6016,155.614024 91.5820235,153.914447 89.1448471,153.631153 C56.9966118,150.0736 56.9966118,150.0736 56.9966118,150.0736 C56.7101176,152.920565 56.7101176,152.920565 56.7101176,152.920565 C90.4362353,156.607812 90.4362353,156.607812 90.4362353,156.607812 L100.767247,191.103351 Z" id="Fill-46" fill="#002050"></path>
                                <path d="M95.7522824,145.536565 C70.1967059,142.704 70.1967059,142.704 70.1967059,142.704 C69.9103059,145.253271 69.9103059,145.253271 69.9103059,145.253271 C100.335153,148.657224 100.335153,148.657224 100.335153,148.657224 C99.4758588,146.813647 97.7572706,145.680565 95.7522824,145.536565 Z" id="Fill-47" fill="#2B579A"></path>
                                <path d="M70.0559059,107.641882 C69.0510118,106.5088 67.9052235,102.523953 62.4436706,102.523953 C61.1570824,102.523953 55.5644235,102.523953 54.1322353,102.523953 C48.8162824,102.523953 48.0977882,108.064376 47.5248941,109.202259 C45.8063059,113.7344 44.9470118,133.039435 44.9470118,140.850729 C44.9470118,148.801318 44.9470118,153.631153 49.5298824,153.631153 C59.2928941,153.631153 59.2928941,153.631153 59.2928941,153.631153 C63.8903529,153.631153 76.2311529,156.468612 76.2311529,148.657224 C76.2311529,140.706729 72.4929882,110.618541 70.0559059,107.641882 Z" id="Fill-48" fill="#6EB38A"></path>
                                <path d="M65.6089412,103.090447 C64.7496471,102.667953 63.7495529,102.523953 62.4436706,102.523953 C61.1570824,102.523953 55.5644235,102.523953 54.2730353,102.523953 C49.9619765,102.523953 48.6705882,105.783906 48.0977882,107.781082 C48.9570824,106.5088 50.1076706,104.650824 52.3990588,104.228329 C53.8458353,103.945035 60.5793882,103.661835 62.0163765,103.373741 C63.3174588,103.234541 64.4632471,103.234541 65.4681412,103.373741 L65.6089412,103.090447 Z" id="Fill-49" fill="#9FCDB3"></path>
                                <path d="M109.130353,62.5035294 C108.557553,62.5035294 107.984659,60.2374588 107.125365,60.2374588 C106.261271,60.2374588 104.960188,55.9741176 104.960188,55.9741176 C104.673694,55.4076235 104.960188,54.8362353 105.532988,54.5530353 C106.105882,54.2697412 106.693271,54.4137412 106.979765,54.9803294 C109.989647,60.9480471 109.989647,60.9480471 109.989647,60.9480471 C110.276141,61.5145412 109.989647,62.0810353 109.416847,62.3643294 C109.276047,62.5035294 109.130353,62.5035294 109.130353,62.5035294 Z" id="Fill-50" fill="#CB8C84"></path>
                                <path d="M61.4435765,193.086193 C60.2929882,193.086193 59.1472,191.953139 59.1472,190.680866 C59.1472,160.304612 59.1472,160.304612 59.1472,160.304612 C59.1472,159.017929 60.2929882,158.024113 61.4435765,158.024113 C62.7300706,158.024113 63.8903529,159.017929 63.8903529,160.304612 C63.8903529,190.680866 63.8903529,190.680866 63.8903529,190.680866 C63.8903529,191.953139 62.7300706,193.086193 61.4435765,193.086193 Z" id="Fill-62" fill="#3C3C3C"></path>
                                <path d="M75.9447529,153.631153 C63.1718588,153.631153 63.1718588,153.631153 63.1718588,153.631153 C47.0928,153.631153 47.0928,153.631153 47.0928,153.631153 C43.3546353,153.631153 40.3446588,156.607812 40.3446588,160.304612 C82.6928941,160.304612 82.6928941,160.304612 82.6928941,160.304612 C82.6928941,156.607812 79.6732235,153.631153 75.9447529,153.631153 Z" id="Fill-63" fill="#666666"></path>
                                <path d="M58.8608,154.197647 C71.6336941,154.197647 71.6336941,154.197647 71.6336941,154.197647 C75.0854588,154.197647 77.9497412,156.891106 78.2362353,160.304612 C82.6928941,160.304612 82.6928941,160.304612 82.6928941,160.304612 C82.6928941,156.607812 79.6732235,153.631153 75.9447529,153.631153 C68.0460235,153.631153 68.0460235,153.631153 68.0460235,153.631153 C47.0928,153.631153 47.0928,153.631153 47.0928,153.631153 C46.2335059,153.631153 45.3742118,153.914447 44.6557176,154.197647 L58.8608,154.197647 Z" id="Fill-64" fill="#3C3C3C"></path>
                                <path d="M74.5125647,196.22128 C73.9348706,196.22128 73.3619765,195.933214 72.7891765,195.49632 C69.9103059,192.380433 65.7545412,190.536828 61.4435765,190.536828 C57.1422118,190.536828 53.1176471,192.380433 50.2484706,195.49632 C49.3891765,196.504536 47.8112941,196.504536 46.952,195.649948 C45.9471059,194.79056 45.9471059,193.374249 46.8064,192.380433 C50.5348706,188.270739 55.8508235,185.846202 61.4435765,185.846202 C67.1867294,185.846202 72.4929882,188.270739 76.2311529,192.380433 C77.0904471,193.374249 77.0904471,194.79056 76.0855529,195.649948 C75.6583529,196.077242 75.0854588,196.22128 74.5125647,196.22128 Z" id="Fill-65" fill="#3C3C3C"></path>
                                <path d="M50.9669647,197.637581 C50.9669647,199.053892 49.8163765,200.186946 48.5298824,200.186946 C47.0928,200.186946 45.9471059,199.053892 45.9471059,197.637581 C45.9471059,196.22128 47.0928,195.073826 48.5298824,195.073826 C49.8163765,195.073826 50.9669647,196.22128 50.9669647,197.637581 Z" id="Fill-66" fill="#212121"></path>
                                <path d="M77.0904471,197.637581 C77.0904471,199.053892 75.9447529,200.186946 74.5125647,200.186946 C73.2212706,200.186946 72.0608941,199.053892 72.0608941,197.637581 C72.0608941,196.22128 73.2212706,195.073826 74.5125647,195.073826 C75.9447529,195.073826 77.0904471,196.22128 77.0904471,197.637581 Z" id="Fill-67" fill="#212121"></path>
                                <path d="M56.4237176,119.702118 C56.4237176,119.702118 55.1323294,119.562918 53.7001412,119.702118 C55.8508235,120.268612 57.7151059,122.678776 57.7151059,125.103341 C57.7151059,137.730071 57.7151059,137.730071 57.7151059,137.730071 C57.7151059,140.279435 55.9965176,142.704 53.7001412,143.126494 C55.1323294,143.270494 56.4237176,143.126494 56.4237176,143.126494 C59.1472,143.126494 61.4435765,140.706729 61.4435765,137.730071 C61.4435765,125.103341 61.4435765,125.103341 61.4435765,125.103341 C61.4435765,122.112282 59.1472,119.702118 56.4237176,119.702118 Z" id="Fill-68" fill="#3C3C3C"></path>
                                <path d="M58.72,137.730071 C58.72,140.706729 56.4237176,143.126494 53.7001412,143.126494 C53.7001412,143.126494 50.9669647,142.9872 49.3891765,142.9872 C47.9569882,142.9872 45.2334118,143.126494 45.2334118,143.126494 C42.4953412,143.126494 40.2038588,140.706729 40.2038588,137.730071 C40.2038588,125.103341 40.2038588,125.103341 40.2038588,125.103341 C40.2038588,122.112282 42.4953412,119.702118 45.2334118,119.702118 C45.2334118,119.702118 47.5248941,119.985412 49.3891765,119.985412 C51.3941647,119.985412 53.7001412,119.702118 53.7001412,119.702118 C56.4237176,119.702118 58.72,122.112282 58.72,125.103341 L58.72,137.730071 Z" id="Fill-69" fill="#666666"></path>
                                <path d="M53.7001412,119.702118 C53.7001412,119.702118 53.1176471,119.702118 52.3990588,119.846118 C54.7051294,120.268612 56.4237176,122.539576 56.4237176,125.103341 C56.4237176,137.730071 56.4237176,137.730071 56.4237176,137.730071 C56.4237176,140.423435 54.7051294,142.704 52.2534588,143.126494 C53.1176471,143.126494 53.7001412,143.126494 53.7001412,143.126494 C56.4237176,143.126494 58.72,140.706729 58.72,137.730071 C58.72,125.103341 58.72,125.103341 58.72,125.103341 C58.72,122.112282 56.4237176,119.702118 53.7001412,119.702118 Z" id="Fill-70" fill="#999999"></path>
                                <path d="M47.2384941,157.884875 C46.2335059,157.884875 45.3742118,157.174306 45.3742118,156.180518 C45.3742118,131.623153 45.3742118,131.623153 45.3742118,131.623153 C45.3742118,130.629271 46.2335059,129.918776 47.2384941,129.918776 C48.0977882,129.918776 48.9570824,130.629271 48.9570824,131.623153 C48.9570824,156.180518 48.9570824,156.180518 48.9570824,156.180518 C48.9570824,157.174306 48.0977882,157.884875 47.2384941,157.884875 Z" id="Fill-71" fill="#3C3C3C"></path>
                                <path d="M104.364612,195.357082 C105.078306,200.047718 105.078306,200.047718 105.078306,200.047718 C105.510306,201.180762 106.515294,201.324791 108.088188,201.180762 C122.735059,199.90368 122.735059,199.90368 122.735059,199.90368 C125.172141,199.620424 132.493176,197.776819 132.493176,197.776819 C135.507953,196.643765 133.784565,195.49632 133.070871,195.49632 C130.488188,195.649948 124.167247,194.507304 119.142588,193.796744 C114.841224,193.230221 104.364612,195.357082 104.364612,195.357082 Z" id="Fill-72" fill="#212121"></path>
                                <path d="M104.219012,191.386616 C104.364612,192.946955 104.078212,194.507304 104.364612,195.357082 C104.651012,196.643765 122.021459,195.357082 122.021459,195.357082 C122.448659,195.357082 124.744941,194.646532 123.880847,194.507304 C119.569788,193.940772 110.670965,191.953139 110.670965,190.253572 L104.219012,191.386616 Z" id="Fill-73" fill="#F6CAA7"></path>
                                <path d="M39.0532706,91.3135059 C31.3002353,98.9808 33.3101176,122.822776 49.1026824,117.291953 C42.9274353,113.451106 35.4704941,103.234541 38.9125647,95.4232471 C39.6310588,93.7236706 40.4903529,93.3011765 40.7767529,93.3011765 L39.0532706,91.3135059 Z" id="Fill-74" fill="#212121"></path>
                            </g>
                            <path d="M106.862118,62.1177412 C106.862118,62.1177412 107.972706,62.0424471 101.986824,77.5144471 C95.8503529,93.5295059 82.624,102.874447 66.1948235,104.265506 L64.9411765,114.991153 C101.715765,111.933271 112.856471,67.4203294 113.696,62.1177342 L106.862118,62.1177412 Z" id="Fill-80" fill="#6EB38A"></path>
                            <path d="M69.4491039,114.382927 C98.9888686,103.823385 109.3696,73.4061852 111.187953,62.1176471 L113.696188,62.1176471 C112.856659,67.4048469 104.473355,109.223828 72.3651195,116.252298 C74.3255901,125.635146 76.2636719,143.975949 76.2636719,149.700942 C76.2636719,153.067595 73.1346507,154.913718 70.9263059,154.572329 C70.9263059,154.572329 73.4430118,153.105424 73.4430118,147.981654 C73.3018353,142.258641 71.4001627,123.767757 69.4491039,114.382927 Z" id="Fill-81" fill="#9FCDB3"></path>
                            <g id="Group-23" transform="translate(69.647059, 0.000000)">
                                <path d="M54.9809882,18.4185412 C55.1221647,17.7258353 55.2586353,17.0284235 55.2586353,16.1841882 C55.2586353,10.0580706 50.2496941,5.17524706 44.1132235,5.17524706 C41.6106353,5.17524706 39.3819294,6.01477647 37.5767529,7.26277647 C35.0591059,3.22889412 30.6064,0.307482353 25.4544,0.307482353 C17.9287529,0.307482353 11.8064,6.42889412 11.5278118,13.9554824 L11.3922824,13.9554824 C5.25487059,13.9554824 0.3824,18.9794824 0.3824,25.1018353 C0.3824,31.2326588 5.25487059,36.1154824 11.3922824,36.1154824 L54.7024,36.1154824 C59.7122824,36.1154824 63.6200471,32.2086588 63.6200471,27.3399529 C63.6200471,22.4580706 59.7122824,18.5597176 54.9809882,18.4185412" id="Fill-1" fill="#EAEAEA"></path>
                                <path d="M59.2935529,34.8523294 L12.2253176,10.0579765 C11.8064941,11.3116235 11.6690824,12.5652706 11.5279059,13.9553882 L11.3914353,13.9553882 C5.25496471,13.9553882 0.382494118,18.9793882 0.382494118,25.1017412 C0.382494118,31.2325647 5.25496471,36.1153882 11.3914353,36.1153882 L54.7024941,36.1153882 C56.3721412,36.1153882 57.9024941,35.7003294 59.2935529,34.8523294" id="Fill-3" fill="#DADADA"></path>
                                <g id="Group" transform="translate(22.588235, 24.174118)">
                                    <polygon id="Fill-6" fill="#FFFFFF" points="30.1984927 19.465364 15.488045 34.1758118 0.618074802 19.3058416 0.947627041 10.3066774 10.993239 0.260587884"></polygon>
                                    <polygon id="Stroke-8" stroke="#DADADA" points="30.1984927 19.465364 15.488045 34.1758118 0.618074802 19.3058416 0.947627041 10.3066774 10.993239 0.260587884"></polygon>
                                    <polygon id="Fill-10" fill="#C8C8C8" points="5.68123898 14.5623909 0.777597191 19.465555 1.18691062 10.0675849"></polygon>
                                    <path d="M3.74748376,18.9481103 L8.32396137,14.3716327 C8.43285689,14.2622595 8.40563301,14.0177222 8.26951361,13.8811252 C8.26951361,13.8811252 8.02402107,13.8539013 7.91560316,13.9627968 L3.33912555,18.5397521 C3.22975241,18.64817 3.36587182,18.7842894 3.36587182,18.7842894 C3.50199122,18.9204088 3.63811062,19.0570058 3.74748376,18.9481103" id="Fill-12" fill="#666666"></path>
                                    <path d="M5.38182406,20.5824506 L9.95830167,16.005973 C10.0671972,15.8965998 10.1760927,15.7881819 10.0399733,15.6520625 C9.90385391,15.5159431 9.65836137,15.4882416 9.54994346,15.5971371 L4.97346585,20.1740924 C4.86409271,20.2829879 5.00021212,20.4191073 5.13633152,20.5552267 C5.27245092,20.6918237 5.27245092,20.6918237 5.38182406,20.5824506" id="Fill-14" fill="#666666"></path>
                                    <path d="M7.01611659,22.2167909 L11.5925942,17.6403133 C11.7019673,17.5314177 11.6742658,17.2864028 11.5381464,17.1502834 C11.402027,17.0136864 11.2931315,17.1230595 11.184236,17.2314774 L6.60775838,21.8084327 C6.49838525,21.9173282 6.49838525,21.9173282 6.63450465,22.0534476 C6.77110167,22.189567 6.90722107,22.326164 7.01611659,22.2167909" id="Fill-16" fill="#666666"></path>
                                    <path d="M13.1453584,28.3459849 L17.721836,23.7695073 C17.8312091,23.6606118 17.8035076,23.4155968 17.8035076,23.4155968 C17.6673882,23.2794774 17.4223733,23.2522536 17.3134778,23.3606715 L12.7370002,27.9376267 C12.6281047,28.0465222 12.7642241,28.1826416 12.9003435,28.318761 C12.9003435,28.318761 13.0364629,28.455358 13.1453584,28.3459849" id="Fill-18" fill="#666666"></path>
                                    <path d="M14.7796509,29.9808028 L19.3561285,25.4043252 C19.4655017,25.2949521 19.5743972,25.1860565 19.3699793,24.9816386 C19.166039,24.7772207 19.0566658,24.8865939 18.9477703,24.9954894 L14.3712927,29.5724446 C14.2623972,29.6808625 14.2623972,29.6808625 14.4668151,29.8852804 C14.6707554,30.0896983 14.6707554,30.0896983 14.7796509,29.9808028" id="Fill-20" fill="#666666"></path>
                                    <path d="M9.16818824,10.2582953 L13.7446658,5.68181773 C13.854039,5.5724446 13.854039,5.5724446 13.6496211,5.3685043 C13.4452032,5.16408639 13.4452032,5.16408639 13.3363076,5.27298191 L8.75983003,9.84993714 C8.65045689,9.95835505 8.54156137,10.0677282 8.74597928,10.2716685 C8.95039719,10.4760864 9.05929271,10.3671909 9.16818824,10.2582953" id="Fill-22" fill="#666666"></path>
                                    <path d="M7.53384794,8.6235252 L12.1103255,4.04704759 C12.2192211,3.93815206 12.0826241,3.80203266 12.0826241,3.80203266 C11.9465047,3.66591326 11.8103853,3.52979385 11.7019673,3.63821176 L7.12548973,8.21516699 C7.01611659,8.32406251 7.04381809,8.56955505 7.17993749,8.70567445 C7.17993749,8.70567445 7.4244748,8.73289833 7.53384794,8.6235252" id="Fill-24" fill="#666666"></path>
                                    <path d="M16.9317226,18.0218297 L21.5082002,13.4453521 C21.6175733,13.3359789 21.6175733,13.3359789 21.4809763,13.1998595 C21.3448569,13.0637401 21.2087375,12.9276207 21.099842,13.0365162 L16.5233644,17.6134715 C16.4144688,17.722367 16.4416927,17.9673819 16.5778121,18.1035013 C16.7139315,18.2396207 16.822827,18.1312028 16.9317226,18.0218297" id="Fill-26" fill="#666666"></path>
                                    <path d="M18.5664927,19.65617 L23.1429703,15.0796924 C23.2518658,14.9707968 23.1152688,14.8346774 22.9791494,14.698558 C22.84303,14.5624386 22.84303,14.5624386 22.7346121,14.6708565 L18.1581345,19.2478118 C18.0487614,19.3567073 17.9398658,19.4656028 18.0759853,19.6017222 C18.2121047,19.7378416 18.4571196,19.7655431 18.5664927,19.65617" id="Fill-28" fill="#666666"></path>
                                    <path d="M20.200833,21.2909401 L24.7773106,16.7144625 C24.8866838,16.6050894 24.7500867,16.46897 24.7500867,16.46897 C24.6139673,16.3328506 24.4778479,16.1967312 24.3689524,16.3056267 L19.7924748,20.8821043 C19.6831017,20.9909998 19.7108032,21.2364924 19.8469226,21.3726118 C19.8469226,21.3726118 20.0914599,21.3998356 20.200833,21.2909401" id="Fill-30" fill="#666666"></path>
                                    <path d="M21.8351733,22.9252804 L26.4116509,18.3488028 C26.5210241,18.2394297 26.5210241,18.2394297 26.3166061,18.0354894 C26.1121882,17.8310715 26.1121882,17.8310715 26.0032927,17.939967 L21.4268151,22.5169222 C21.3179196,22.6253401 21.2085464,22.7347133 21.4129644,22.9386536 C21.6173823,23.1430715 21.7262778,23.0341759 21.8351733,22.9252804" id="Fill-32" fill="#666666"></path>
                                    <polygon id="Fill-34" fill="#0078D7" points="15.0795912 16.6053282 19.5743972 12.1105222 14.671233 7.20688042 10.1759494 11.7016864"></polygon>
                                    <polygon id="Fill-36" fill="#69AFE5" points="11.810433 27.2293759 16.7140748 22.3257342 13.8536569 19.4653162 8.95049271 24.368958"></polygon>
                                </g>
                            </g>
                            <g id="Group-19" transform="translate(105.411765, 49.882353)">
                                <g id="Group-16" transform="translate(0.941176, 0.000000)" fill="#F6CAA7">
                                    <path d="M1.91811765,8.59331765 C1.19962353,8.59331765 0.772423529,8.02192941 0.772423529,7.45543529 C1.19962353,1.78541176 1.19962353,1.78541176 1.19962353,1.78541176 C1.19962353,1.20931765 1.77251765,0.782023529 2.34541176,0.782023529 C2.92310588,0.782023529 3.496,1.34851765 3.35030588,1.92941176 C3.06390588,7.45543529 3.06390588,7.45543529 3.06390588,7.45543529 C3.06390588,8.16602353 2.49101176,8.59331765 1.91811765,8.59331765 Z" id="Fill-53"></path>
                                    <path d="M5.50098824,10.3024941 C4.78249412,10.3024941 4.35529412,9.72630588 4.35529412,9.15981176 C4.78249412,3.48978824 4.78249412,3.48978824 4.78249412,3.48978824 C4.78249412,2.91849412 5.21458824,2.496 5.93308235,2.496 C6.50588235,2.496 6.93317647,3.06249412 6.93317647,3.62898824 C6.64668235,9.29901176 6.64668235,9.29901176 6.64668235,9.29901176 C6.50588235,9.8656 6.07388235,10.3024941 5.50098824,10.3024941 Z" id="Fill-54"></path>
                                    <path d="M7.21957647,10.7297882 C6.64668235,10.7297882 6.21948235,10.1488 6.21948235,9.58230588 C6.50588235,4.90607059 6.50588235,4.90607059 6.50588235,4.90607059 C6.50588235,4.33957647 7.07877647,3.91228235 7.65167059,3.91228235 C8.22447059,3.91228235 8.65656471,4.47877647 8.65656471,5.04527059 C8.37016471,9.72630588 8.37016471,9.72630588 8.37016471,9.72630588 C8.37016471,10.3024941 7.79247059,10.7297882 7.21957647,10.7297882 Z" id="Fill-55"></path>
                                    <path d="M3.63670588,10.1488 C3.06390588,10.1488 2.49101176,9.72630588 2.63181176,9.01581176 C2.92310588,2.91849412 2.92310588,2.91849412 2.92310588,2.91849412 C2.92310588,2.35190588 3.496,1.78541176 4.0688,1.92941176 C4.78249412,1.92941176 5.21458824,2.35190588 5.21458824,3.06249412 C4.78249412,9.15981176 4.78249412,9.15981176 4.78249412,9.15981176 C4.78249412,9.72630588 4.2096,10.3024941 3.63670588,10.1488 Z" id="Fill-56"></path>
                                    <path d="M6.64668235,11.1522824 C4.35529412,11.1522824 0.772423529,11.0129882 0.772423529,11.0129882 C0.913223529,7.88272941 0.913223529,7.88272941 0.913223529,7.88272941 C8.51096471,8.16602353 8.51096471,8.16602353 8.51096471,8.16602353 C8.51096471,8.16602353 8.94305882,11.1522824 6.64668235,11.1522824 Z" id="Fill-57"></path>
                                </g>
                                <path d="M1.7136,7.17214118 C1.7136,7.17214118 0.694117647,9.15981176 1.4272,11.0129882 C3.00009412,11.0129882 3.57298824,11.0129882 3.57298824,11.0129882 L1.7136,7.17214118 Z" id="Fill-61" fill="#F6CAA7"></path>
                                <polygon id="Fill-58" fill="#FFFFFF" points="0.694117647 12.7125647 9.45019106 12.7125647 9.45019106 10.3529412 0.694117647 10.3529412"></polygon>
                            </g>
                        </g>
                    </g>
                </g>
            </g>
        </g>
    </g>
</svg>