<svg width="auto" height="auto" viewBox="0 0 300 300" fill="none" xmlns="http://www.w3.org/2000/svg">
<g clip-path="url(#clip0_4596_39822)">
<mask id="mask0_4596_39822" style="mask-type:luminance" maskUnits="userSpaceOnUse" x="0" y="0" width="300" height="300">
<path d="M300 0H0V300H300V0Z" fill="white"/>
</mask>
<g mask="url(#mask0_4596_39822)">
<path d="M219.405 40.5684C215.294 27.5771 203.238 18.7477 189.612 18.7477H179.313C164.261 18.7477 151.348 29.477 148.591 44.2739L133.287 126.416L137.879 111.252C141.87 98.0735 154.018 89.0602 167.788 89.0602H215.624L243.052 98.6586L257.64 89.1094C244.013 89.1094 231.958 80.2305 227.846 67.2395L219.405 40.5684Z" fill="url(#paint0_radial_4596_39822)"/>
<path d="M83.8133 259.291C87.8813 272.352 99.9703 281.248 113.649 281.248H133.923C151.009 281.248 164.927 267.526 165.17 250.442L166.244 174.981L162.131 188.674C158.163 201.887 145.998 210.935 132.202 210.935H84.3758L59.6424 199.659L45.7535 210.935C59.4324 210.935 71.5214 219.831 75.5896 232.891L83.8133 259.291Z" fill="url(#paint1_radial_4596_39822)"/>
<path d="M187.5 18.7477H78.1249C46.8749 18.7477 28.1248 59.0477 15.6249 99.3477C0.815622 147.093 -18.5626 210.948 37.4998 210.948H85.129C99.0235 210.948 111.24 201.808 115.146 188.474C123.363 160.423 137.727 111.616 149.013 74.4491C154.757 55.5326 159.541 39.2866 166.884 29.1696C171.002 23.4976 177.863 18.7477 187.5 18.7477Z" fill="url(#paint2_linear_4596_39822)"/>
<path d="M187.5 18.7477H78.1249C46.8749 18.7477 28.1248 59.0477 15.6249 99.3477C0.815622 147.093 -18.5626 210.948 37.4998 210.948H85.129C99.0235 210.948 111.24 201.808 115.146 188.474C123.363 160.423 137.727 111.616 149.013 74.4491C154.757 55.5326 159.541 39.2866 166.884 29.1696C171.002 23.4976 177.863 18.7477 187.5 18.7477Z" fill="url(#paint3_linear_4596_39822)"/>
<path d="M112.477 281.248H221.852C253.102 281.248 271.852 240.953 284.352 200.659C299.162 152.922 318.54 89.0765 262.477 89.0765H214.847C200.953 89.0765 188.738 98.2148 184.831 111.548C176.613 139.595 162.25 188.393 150.964 225.554C145.22 244.468 140.435 260.712 133.092 270.827C128.976 276.498 122.114 281.248 112.477 281.248Z" fill="url(#paint4_radial_4596_39822)"/>
<path d="M112.477 281.248H221.852C253.102 281.248 271.852 240.953 284.352 200.659C299.162 152.922 318.54 89.0765 262.477 89.0765H214.847C200.953 89.0765 188.738 98.2148 184.831 111.548C176.613 139.595 162.25 188.393 150.964 225.554C145.22 244.468 140.435 260.712 133.092 270.827C128.976 276.498 122.114 281.248 112.477 281.248Z" fill="url(#paint5_linear_4596_39822)"/>
<path d="M284.845 210.938H113.593C105.223 210.938 98.4375 217.723 98.4375 226.093V284.845C98.4375 293.215 105.223 300 113.593 300H284.845C293.215 300 300 293.215 300 284.845V226.093C300 217.723 293.215 210.938 284.845 210.938Z" fill="black"/>
<path fill-rule="evenodd" clip-rule="evenodd" d="M110.701 227.957V282.255H120.746V243.136L131.759 264.828H138.455L149.226 243.12V282.255H159.594V227.957H148.016L135.436 253.152L122.924 227.957H110.701ZM185.754 282.941C179.784 282.941 175.131 281.516 171.796 278.666C168.488 275.815 166.834 271.526 166.834 265.797H176.758C176.758 268.513 177.538 270.638 179.098 272.171C180.684 273.704 182.89 274.47 185.713 274.47C188.241 274.47 190.178 273.825 191.523 272.534C192.895 271.243 193.58 269.199 193.58 266.402C193.58 263.712 192.746 261.763 191.079 260.553C189.438 259.316 187.3 258.697 184.665 258.697H181.397V250.548H184.947C187.314 250.548 189.196 249.903 190.595 248.612C191.993 247.321 192.692 245.613 192.692 243.489C192.692 241.337 192.06 239.751 190.796 238.729C189.559 237.707 187.852 237.195 185.673 237.195C183.28 237.195 181.424 237.868 180.106 239.212C178.788 240.53 178.13 242.346 178.13 244.659H168.246C168.246 241.028 168.999 238.043 170.505 235.703C172.038 233.363 174.123 231.616 176.758 230.459C179.394 229.276 182.352 228.684 185.633 228.684C188.672 228.684 191.482 229.181 194.064 230.177C196.646 231.172 198.716 232.691 200.277 234.735C201.863 236.779 202.656 239.401 202.656 242.602C202.656 245.855 201.877 248.437 200.317 250.347C198.784 252.256 196.713 253.601 194.105 254.38C196.982 254.973 199.362 256.317 201.245 258.415C203.154 260.486 204.109 263.404 204.109 267.169C204.109 272.278 202.455 276.191 199.147 278.908C195.866 281.597 191.402 282.941 185.754 282.941ZM218.229 280.279C221.214 282.08 224.603 282.982 228.395 282.982C232.214 282.982 235.441 282.229 238.077 280.723C240.739 279.216 242.756 277.146 244.127 274.51C245.499 271.848 246.185 268.795 246.185 265.353C246.185 261.776 245.513 258.777 244.168 256.357C242.823 253.91 240.995 252.067 238.682 250.83C236.396 249.566 233.814 248.934 230.937 248.934C228.516 248.934 226.391 249.324 224.563 250.105C222.761 250.884 221.16 251.92 219.762 253.211C219.587 253.376 219.413 253.544 219.239 253.713C219.422 248.503 220.202 244.557 221.577 241.875C223.191 238.755 225.477 237.195 228.435 237.195C230.264 237.195 231.743 237.706 232.873 238.728C234.029 239.723 234.809 241.243 235.213 243.287H245.136C244.437 238.607 242.662 235.017 239.811 232.516C236.96 229.988 233.169 228.724 228.435 228.724C224.59 228.724 221.174 229.705 218.189 231.669C215.204 233.605 212.864 236.604 211.17 240.665C209.475 244.698 208.628 249.876 208.628 256.196C208.628 262.543 209.489 267.693 211.21 271.646C212.931 275.573 215.271 278.45 218.229 280.279ZM219.271 261.466C219.987 260.769 220.782 260.128 221.658 259.544C223.837 258.065 226.297 257.325 229.041 257.325C231.111 257.325 232.725 258.052 233.881 259.504C235.038 260.929 235.616 262.92 235.616 265.474C235.616 268.083 235.011 270.248 233.801 271.969C232.617 273.69 230.816 274.551 228.395 274.551C226.835 274.551 225.342 274.053 223.917 273.058C222.519 272.036 221.376 270.382 220.488 268.096C219.834 266.337 219.428 264.127 219.271 261.466ZM260.023 281.206C262.846 282.39 265.993 282.981 269.462 282.981C272.905 282.981 275.997 282.296 278.741 280.924C281.51 279.552 283.702 277.509 285.316 274.792C286.93 272.049 287.736 268.62 287.736 264.505C287.736 260.391 286.97 257.07 285.437 254.541C283.931 252.013 281.954 250.171 279.507 249.015C277.059 247.831 274.438 247.24 271.641 247.24C269.489 247.24 267.62 247.59 266.033 248.289C264.473 248.961 263.29 249.755 262.483 250.669L263.452 238.244H283.662V229.409H255.101L252.802 258.656H262.039C262.792 257.715 263.747 256.935 264.904 256.316C266.06 255.698 267.472 255.388 269.139 255.388C271.506 255.388 273.429 256.115 274.908 257.567C276.414 258.992 277.167 261.305 277.167 264.505C277.167 267.975 276.455 270.516 275.029 272.13C273.63 273.744 271.775 274.55 269.462 274.55C267.015 274.55 265.011 273.865 263.452 272.493C261.891 271.095 261.112 269.185 261.112 266.765H250.825C250.825 270.395 251.645 273.421 253.285 275.841C254.953 278.235 257.198 280.023 260.023 281.206Z" fill="white"/>
</g>
</g>
<defs>
<radialGradient id="paint0_radial_4596_39822" cx="0" cy="0" r="1" gradientUnits="userSpaceOnUse" gradientTransform="translate(245.567 127.12) rotate(-130.285) scale(115.18 108.99)">
<stop offset="0.0955758" stop-color="#00AEFF"/>
<stop offset="0.773185" stop-color="#2253CE"/>
<stop offset="1" stop-color="#0736C4"/>
</radialGradient>
<radialGradient id="paint1_radial_4596_39822" cx="0" cy="0" r="1" gradientUnits="userSpaceOnUse" gradientTransform="translate(61.9207 209.973) rotate(50.2556) scale(104.226 102.308)">
<stop stop-color="#FFB657"/>
<stop offset="0.633728" stop-color="#FF5F3D"/>
<stop offset="0.923392" stop-color="#C02B3C"/>
</radialGradient>
<linearGradient id="paint2_linear_4596_39822" x1="71.5786" y1="42.0364" x2="86.4422" y2="218.262" gradientUnits="userSpaceOnUse">
<stop offset="0.156162" stop-color="#0D91E1"/>
<stop offset="0.487484" stop-color="#52B471"/>
<stop offset="0.652394" stop-color="#98BD42"/>
<stop offset="0.937361" stop-color="#FFC800"/>
</linearGradient>
<linearGradient id="paint3_linear_4596_39822" x1="85.2172" y1="18.7477" x2="93.3313" y2="210.965" gradientUnits="userSpaceOnUse">
<stop stop-color="#3DCBFF"/>
<stop offset="0.246674" stop-color="#0588F7" stop-opacity="0"/>
</linearGradient>
<radialGradient id="paint4_radial_4596_39822" cx="0" cy="0" r="1" gradientUnits="userSpaceOnUse" gradientTransform="translate(268.095 70.2613) rotate(109.722) scale(256.052 312.724)">
<stop offset="0.0661714" stop-color="#8C48FF"/>
<stop offset="0.5" stop-color="#F2598A"/>
<stop offset="0.895833" stop-color="#FFB152"/>
</radialGradient>
<linearGradient id="paint5_linear_4596_39822" x1="276.736" y1="77.3437" x2="276.631" y2="129.684" gradientUnits="userSpaceOnUse">
<stop offset="0.0581535" stop-color="#F8ADFA"/>
<stop offset="0.708063" stop-color="#A86EDD" stop-opacity="0"/>
</linearGradient>
<clipPath id="clip0_4596_39822">
<rect width="300" height="300" fill="white"/>
</clipPath>
</defs>
</svg>
