<svg width="auto" height="auto" viewBox="0 0 25 24" fill="none" xmlns="http://www.w3.org/2000/svg">
<path d="M19.1484 11C19.5281 11 19.8419 11.2822 19.8916 11.6482L19.8984 11.75V12.25C19.8984 15.8094 17.1434 18.7254 13.6494 18.9817L13.6484 21.25C13.6484 21.6642 13.3127 22 12.8984 22C12.5187 22 12.2049 21.7178 12.1553 21.3518L12.1484 21.25L12.1485 18.9818C8.73167 18.7316 6.02127 15.938 5.9025 12.4863L5.89844 12.25V11.75C5.89844 11.3358 6.23422 11 6.64844 11C7.02813 11 7.34193 11.2822 7.39159 11.6482L7.39844 11.75V12.25C7.39844 15.077 9.63289 17.3821 12.432 17.4956L12.6484 17.5H13.1484C15.9754 17.5 18.2806 15.2656 18.3941 12.4664L18.3984 12.25V11.75C18.3984 11.3358 18.7342 11 19.1484 11ZM12.8984 2C15.1076 2 16.8984 3.79086 16.8984 6V12C16.8984 14.2091 15.1076 16 12.8984 16C10.6893 16 8.89844 14.2091 8.89844 12V6C8.89844 3.79086 10.6893 2 12.8984 2ZM12.8984 3.5C11.5177 3.5 10.3984 4.61929 10.3984 6V12C10.3984 13.3807 11.5177 14.5 12.8984 14.5C14.2791 14.5 15.3984 13.3807 15.3984 12V6C15.3984 4.61929 14.2791 3.5 12.8984 3.5Z" fill="#242424"/>
</svg>
