<svg width="auto" height="auto" viewBox="0 0 25 24" fill="none" xmlns="http://www.w3.org/2000/svg">
<path d="M4.17877 2.21968C3.88588 1.92678 3.41101 1.92677 3.11811 2.21966C2.82522 2.51255 2.82521 2.98743 3.1181 3.28032L8.89844 9.06078V12C8.89844 14.2091 10.6893 16 12.8984 16C13.7319 16 14.5058 15.7451 15.1465 15.309L16.2924 16.4549C15.416 17.1112 14.3276 17.5 13.1484 17.5H12.6484L12.432 17.4956C9.63289 17.3821 7.39844 15.077 7.39844 12.25V11.75L7.39159 11.6482C7.34193 11.2822 7.02813 11 6.64844 11C6.23422 11 5.89844 11.3358 5.89844 11.75V12.25L5.9025 12.4863C6.02127 15.938 8.73167 18.7316 12.1485 18.9818L12.1484 21.25L12.1553 21.3518C12.2049 21.7178 12.5187 22 12.8984 22C13.3127 22 13.6484 21.6642 13.6484 21.25L13.6494 18.9817C15.0484 18.8791 16.3289 18.35 17.3615 17.5241L21.6179 21.7805C21.9108 22.0734 22.3856 22.0734 22.6785 21.7805C22.9714 21.4876 22.9714 21.0127 22.6786 20.7198L4.17877 2.21968ZM14.0547 14.2171C13.7089 14.3978 13.3156 14.5 12.8984 14.5C11.5177 14.5 10.3984 13.3807 10.3984 12V10.5608L14.0547 14.2171ZM15.3984 6V11.3182L16.8286 12.7483C16.8744 12.5059 16.8984 12.2558 16.8984 12V6C16.8984 3.79086 15.1076 2 12.8984 2C11.0506 2 9.49536 3.25302 9.03612 4.95575L10.3984 6.3181V6C10.3984 4.61929 11.5177 3.5 12.8984 3.5C14.2791 3.5 15.3984 4.61929 15.3984 6ZM18.0946 14.0144L19.2405 15.1604C19.6623 14.2791 19.8984 13.2921 19.8984 12.25V11.75L19.8916 11.6482C19.8419 11.2822 19.5281 11 19.1484 11C18.7342 11 18.3984 11.3358 18.3984 11.75V12.25L18.3941 12.4664C18.3721 13.0075 18.2683 13.5276 18.0946 14.0144Z" fill="#242424"/>
</svg>
