<svg width="auto" height="auto" viewBox="0 0 25 24" fill="none" xmlns="http://www.w3.org/2000/svg">
<path d="M12.3139 2.25C13.0479 2.25846 13.779 2.34326 14.4954 2.50304C14.8082 2.57279 15.0421 2.83351 15.0776 3.15196L15.2478 4.67881C15.3248 5.37986 15.9167 5.91084 16.6224 5.91158C16.8121 5.91188 16.9997 5.87238 17.1749 5.79483L18.5756 5.17956C18.8669 5.05159 19.2072 5.12136 19.4247 5.35362C20.4369 6.43464 21.1907 7.73115 21.6294 9.14558C21.7241 9.45058 21.6152 9.78203 21.3581 9.9715L20.1166 10.8866C19.7625 11.1468 19.5533 11.56 19.5533 11.9995C19.5533 12.4389 19.7625 12.8521 20.1174 13.1129L21.36 14.0283C21.6171 14.2177 21.7261 14.5492 21.6315 14.8543C21.1929 16.2685 20.4395 17.5649 19.4279 18.6461C19.2106 18.8783 18.8705 18.9483 18.5792 18.8206L17.1729 18.2045C16.7706 18.0284 16.3085 18.0542 15.9283 18.274C15.5481 18.4937 15.295 18.8812 15.2467 19.3177L15.0776 20.8444C15.0428 21.1592 14.8139 21.4182 14.5058 21.4915C13.0573 21.8361 11.5482 21.8361 10.0998 21.4915C9.79166 21.4182 9.5628 21.1592 9.52794 20.8444L9.35912 19.32C9.30953 18.8843 9.0561 18.498 8.67618 18.279C8.29627 18.06 7.83496 18.0343 7.43396 18.2094L6.02733 18.8256C5.73598 18.9533 5.39579 18.8833 5.17854 18.6509C4.16638 17.5685 3.41295 16.2705 2.97496 14.8548C2.88062 14.5499 2.98962 14.2186 3.2466 14.0293L4.48994 13.1133C4.84408 12.8531 5.05323 12.4399 5.05323 12.0005C5.05323 11.561 4.84408 11.1478 4.48947 10.8873L3.24692 9.97285C2.98955 9.78345 2.88045 9.45178 2.97513 9.14658C3.41388 7.73215 4.1677 6.43564 5.17988 5.35462C5.39735 5.12236 5.7377 5.05259 6.029 5.18056L7.42938 5.79572C7.83232 5.97256 8.29556 5.94585 8.67753 5.72269C9.05785 5.50209 9.31104 5.11422 9.35993 4.67764L9.53 3.15196C9.56552 2.83335 9.79962 2.57254 10.1126 2.50294C10.8298 2.34342 11.5617 2.25865 12.3139 2.25ZM12.3141 3.7499C11.8601 3.75524 11.4073 3.79443 10.9596 3.86702L10.8507 4.84418C10.7488 5.75368 10.2218 6.56102 9.43218 7.01903C8.63773 7.48317 7.66912 7.53903 6.82634 7.16917L5.92805 6.77456C5.35612 7.46873 4.9009 8.25135 4.58028 9.09168L5.37808 9.67879C6.11689 10.2216 6.55323 11.0837 6.55323 12.0005C6.55323 12.9172 6.11689 13.7793 5.37886 14.3215L4.5798 14.9102C4.90014 15.752 5.35543 16.5361 5.92776 17.2316L6.83289 16.8351C7.67098 16.4692 8.633 16.5227 9.42529 16.9794C10.2176 17.4361 10.7461 18.2417 10.8498 19.1526L10.9587 20.1365C11.8484 20.2878 12.7572 20.2878 13.6469 20.1365L13.7558 19.1527C13.8566 18.2421 14.3845 17.4337 15.1777 16.9753C15.971 16.5168 16.9349 16.463 17.7746 16.8305L18.679 17.2267C19.2508 16.5323 19.7059 15.7495 20.0264 14.909L19.2285 14.3211C18.4897 13.7783 18.0533 12.9162 18.0533 11.9995C18.0533 11.0827 18.4897 10.2206 19.2276 9.67847L20.0245 9.09109C19.7038 8.25061 19.2485 7.46784 18.6765 6.77356L17.78 7.16737C17.4147 7.32901 17.0195 7.4122 16.6204 7.41158C15.1507 7.41004 13.9173 6.30355 13.7569 4.84383L13.648 3.8667C13.2024 3.7942 12.7544 3.75512 12.3141 3.7499ZM12.3015 8.24995C14.3725 8.24995 16.0515 9.92888 16.0515 12C16.0515 14.071 14.3725 15.75 12.3015 15.75C10.2304 15.75 8.55145 14.071 8.55145 12C8.55145 9.92888 10.2304 8.24995 12.3015 8.24995ZM12.3015 9.74995C11.0588 9.74995 10.0515 10.7573 10.0515 12C10.0515 13.2426 11.0588 14.25 12.3015 14.25C13.5441 14.25 14.5515 13.2426 14.5515 12C14.5515 10.7573 13.5441 9.74995 12.3015 9.74995Z" fill="#242424"/>
</svg>
