<svg width="auto" height="auto" viewBox="0 0 21 14" fill="none" xmlns="http://www.w3.org/2000/svg">
<path d="M18.2454 0C19.488 0 20.4954 1.00736 20.4954 2.25V11.7546C20.4954 12.9972 19.488 14.0046 18.2454 14.0046H2.75C1.50736 14.0046 0.5 12.9972 0.5 11.7546V2.25C0.5 1.00736 1.50736 0 2.75 0H18.2454ZM18.2454 1.5H2.75C2.33579 1.5 2 1.83579 2 2.25V11.7546C2 12.1688 2.33579 12.5046 2.75 12.5046H18.2454C18.6596 12.5046 18.9954 12.1688 18.9954 11.7546V2.25C18.9954 1.83579 18.6596 1.5 18.2454 1.5ZM5.25 9.5H15.75C16.1642 9.5 16.5 9.83579 16.5 10.25C16.5 10.6297 16.2178 10.9435 15.8518 10.9932L15.75 11H5.25C4.83579 11 4.5 10.6642 4.5 10.25C4.5 9.8703 4.78215 9.55651 5.14823 9.50685L5.25 9.5H15.75H5.25ZM15 6C15.5523 6 16 6.44772 16 7C16 7.55228 15.5523 8 15 8C14.4477 8 14 7.55228 14 7C14 6.44772 14.4477 6 15 6ZM9.00488 6C9.55716 6 10.0049 6.44772 10.0049 7C10.0049 7.55228 9.55716 8 9.00488 8C8.45259 8 8.00488 7.55228 8.00488 7C8.00488 6.44772 8.45259 6 9.00488 6ZM6.00488 6C6.55716 6 7.00488 6.44772 7.00488 7C7.00488 7.55228 6.55716 8 6.00488 8C5.45259 8 5.00488 7.55228 5.00488 7C5.00488 6.44772 5.45259 6 6.00488 6ZM12.0049 6C12.5572 6 13.0049 6.44772 13.0049 7C13.0049 7.55228 12.5572 8 12.0049 8C11.4526 8 11.0049 7.55228 11.0049 7C11.0049 6.44772 11.4526 6 12.0049 6ZM4.5 3C5.05228 3 5.5 3.44772 5.5 4C5.5 4.55228 5.05228 5 4.5 5C3.94772 5 3.5 4.55228 3.5 4C3.5 3.44772 3.94772 3 4.5 3ZM7.49512 3C8.04741 3 8.49512 3.44772 8.49512 4C8.49512 4.55228 8.04741 5 7.49512 5C6.94284 5 6.49512 4.55228 6.49512 4C6.49512 3.44772 6.94284 3 7.49512 3ZM10.4951 3C11.0474 3 11.4951 3.44772 11.4951 4C11.4951 4.55228 11.0474 5 10.4951 5C9.94284 5 9.49512 4.55228 9.49512 4C9.49512 3.44772 9.94284 3 10.4951 3ZM13.4951 3C14.0474 3 14.4951 3.44772 14.4951 4C14.4951 4.55228 14.0474 5 13.4951 5C12.9428 5 12.4951 4.55228 12.4951 4C12.4951 3.44772 12.9428 3 13.4951 3ZM16.4951 3C17.0474 3 17.4951 3.44772 17.4951 4C17.4951 4.55228 17.0474 5 16.4951 5C15.9428 5 15.4951 4.55228 15.4951 4C15.4951 3.44772 15.9428 3 16.4951 3Z" fill="#242424"/>
</svg>
