<svg width="auto" height="auto" viewBox="0 0 28 28" fill="none" xmlns="http://www.w3.org/2000/svg">
<path d="M14 3.5C14.443 3.5 14.809 3.82918 14.867 4.25627L14.875 4.375V23.625C14.875 24.1082 14.4832 24.5 14 24.5C13.557 24.5 13.1909 24.1708 13.133 23.7437L13.125 23.625V4.375C13.125 3.89175 13.5167 3.5 14 3.5ZM9.63074 7C10.0737 7 10.4398 7.32918 10.4978 7.75627L10.5057 7.875V20.125C10.5057 20.6082 10.114 21 9.63074 21C9.18777 21 8.82167 20.6708 8.76373 20.2437L8.75574 20.125V7.875C8.75574 7.39175 9.14749 7 9.63074 7ZM18.3692 7C18.8122 7 19.1783 7.32918 19.2362 7.75627L19.2442 7.875V20.125C19.2442 20.6082 18.8525 21 18.3692 21C17.9262 21 17.5601 20.6708 17.5022 20.2437L17.4942 20.125V7.875C17.4942 7.39175 17.886 7 18.3692 7ZM5.54294 10.5C5.98592 10.5 6.35201 10.8292 6.40995 11.2563L6.41794 11.375V16.625C6.41794 17.1082 6.02619 17.5 5.54294 17.5C5.09996 17.5 4.73387 17.1708 4.67593 16.7437L4.66794 16.625V11.375C4.66794 10.8918 5.05969 10.5 5.54294 10.5ZM22.4609 10.5C22.9038 10.5 23.2699 10.8292 23.3279 11.2563L23.3359 11.375V16.6234C23.3359 17.1067 22.9441 17.4984 22.4609 17.4984C22.0179 17.4984 21.6518 17.1693 21.5939 16.7422L21.5859 16.6234V11.375C21.5859 10.8918 21.9776 10.5 22.4609 10.5Z" fill="#242424"/>
</svg>
