<svg viewBox="0 0 24 24" fill="none" xmlns="http://www.w3.org/2000/svg">
<g id="Device EQ">
<path id="Shape" d="M12.0008 3C12.3805 3 12.6943 3.28215 12.744 3.64823L12.7508 3.75V20.25C12.7508 20.6642 12.4151 21 12.0008 21C11.6211 21 11.3073 20.7178 11.2577 20.3518L11.2508 20.25V3.75C11.2508 3.33579 11.5866 3 12.0008 3ZM8.25579 6C8.63548 6 8.94928 6.28215 8.99894 6.64823L9.00579 6.75V17.25C9.00579 17.6642 8.67 18 8.25579 18C7.87609 18 7.5623 17.7178 7.51263 17.3518L7.50579 17.25V6.75C7.50579 6.33579 7.84157 6 8.25579 6ZM15.7459 6C16.1256 6 16.4394 6.28215 16.489 6.64823L16.4959 6.75V17.25C16.4959 17.6642 16.1601 18 15.7459 18C15.3662 18 15.0524 17.7178 15.0027 17.3518L14.9959 17.25V6.75C14.9959 6.33579 15.3317 6 15.7459 6ZM4.75195 9C5.13165 9 5.44544 9.28215 5.49511 9.64823L5.50195 9.75V14.25C5.50195 14.6642 5.16617 15 4.75195 15C4.37226 15 4.05846 14.7178 4.0088 14.3518L4.00195 14.25V9.75C4.00195 9.33579 4.33774 9 4.75195 9ZM19.253 9C19.6327 9 19.9465 9.28215 19.9962 9.64823L20.003 9.75V14.2487C20.003 14.6629 19.6672 14.9987 19.253 14.9987C18.8733 14.9987 18.5595 14.7165 18.5099 14.3504L18.503 14.2487V9.75C18.503 9.33579 18.8388 9 19.253 9Z" fill="#242424"/>
</g>
</svg>
